<?xml version="1.0" standalone="no"?>
<!DOCTYPE svg PUBLIC "-//W3C//DTD SVG 20010904//EN"
 "http://www.w3.org/TR/2001/REC-SVG-20010904/DTD/svg10.dtd">
<svg version="1.0" xmlns="http://www.w3.org/2000/svg"
 width="92" height="64" viewBox="0 0 512.000000 512.000000"
 preserveAspectRatio="xMidYMid meet">
<metadata>
Created by potrace 1.16, written by Peter Selinger 2001-2019
</metadata>
<g transform="translate(0.000000,512.000000) scale(0.100000,-0.100000)"
fill="#000000" stroke="none">
<path d="M630 5111 c-128 -39 -242 -163 -279 -301 -9 -34 -11 -571 -9 -2265
l3 -2220 31 -66 c54 -114 144 -193 264 -235 53 -18 114 -19 1920 -19 1806 0
1867 1 1920 19 120 42 210 121 264 235 l31 66 3 2040 2 2039 -358 358 -357
358 -1705 -1 c-938 0 -1716 -4 -1730 -8z m3290 -472 l0 -311 29 -29 29 -29
311 0 311 0 0 -850 0 -850 -2040 0 -2040 0 0 1093 c0 1077 1 1093 21 1137 27
60 64 98 124 126 l50 24 1603 0 1602 0 0 -311z m370 -4 l185 -185 -188 0 -187
0 0 185 c0 102 1 185 3 185 1 0 85 -83 187 -185z m310 -3090 l0 -845 -2040 0
-2040 0 0 845 0 845 2040 0 2040 0 0 -845z m0 -1086 c0 -86 -17 -133 -67 -189
-84 -93 110 -85 -1973 -85 -2083 0 -1889 -8 -1973 85 -50 56 -67 103 -67 189
l0 61 2040 0 2040 0 0 -61z"/>
<path d="M1160 2310 c-57 -23 -55 4 -58 -743 -2 -463 1 -701 8 -727 17 -64 39
-70 252 -70 101 0 209 4 242 10 186 30 328 175 357 363 6 39 9 221 7 444 l-3
378 -26 55 c-54 116 -188 226 -329 271 -53 18 -97 22 -245 25 -105 2 -190 0
-205 -6z m340 -180 c76 -14 151 -51 205 -101 84 -77 80 -54 80 -494 l0 -390
-25 -48 c-13 -27 -40 -62 -59 -79 -61 -54 -92 -62 -263 -66 l-158 -4 0 596 0
596 84 0 c46 0 107 -5 136 -10z"/>
<path d="M2184 2310 c-56 -22 -54 7 -54 -768 l0 -714 30 -30 c27 -26 36 -30
67 -25 19 4 43 13 52 21 9 8 74 132 146 275 71 144 132 261 135 261 3 0 64
-117 135 -261 73 -147 140 -269 154 -280 35 -28 77 -24 112 10 l29 29 0 715
c0 697 0 715 -20 740 -11 13 -31 28 -45 31 -36 9 -93 -18 -105 -49 -6 -16 -10
-218 -11 -518 l0 -492 -88 174 c-88 175 -108 200 -158 201 -55 1 -71 -19 -163
-199 l-89 -176 -1 492 c0 300 -4 502 -10 518 -6 15 -24 32 -45 40 -39 17 -42
17 -71 5z"/>
<path d="M3358 2311 c-101 -21 -190 -120 -203 -225 -3 -28 -5 -292 -3 -586 l3
-535 24 -47 c29 -57 61 -88 121 -120 44 -22 53 -23 285 -23 l240 0 54 30 c58
32 102 83 123 143 10 27 13 116 13 334 l0 296 -24 26 -24 26 -212 0 c-211 0
-212 0 -234 -24 -33 -35 -31 -90 3 -125 26 -25 30 -26 171 -29 l145 -4 0 -196
c0 -109 -5 -214 -11 -234 -16 -61 -40 -68 -243 -68 -96 0 -186 4 -201 10 -54
20 -55 34 -55 585 0 561 0 563 60 584 50 17 352 15 395 -3 43 -18 55 -58 55
-187 0 -87 2 -97 23 -117 34 -32 96 -30 128 4 23 25 24 31 23 157 0 149 -14
195 -75 256 -68 68 -99 76 -334 78 -115 1 -227 -2 -247 -6z"/>
</g>
</svg>
