<?xml version="1.0" encoding="utf-8"?>
<!-- Generator: Adobe Illustrator 25.4.1, SVG Export Plug-In . SVG Version: 6.00 Build 0)  -->
<svg version="1.1" id="Capa_1" xmlns="http://www.w3.org/2000/svg" xmlns:xlink="http://www.w3.org/1999/xlink" x="0px" y="0px"
	 width="200.68px" height="166.38px" viewBox="0 0 200.68 166.38" enable-background="new 0 0 200.68 166.38" xml:space="preserve">
<g>
	<path fill="#863932" d="M175.98,88.75c-7.59,13.39-20.01,27.35-35.92,39.22c-12.93,9.63-26.33,16.52-38.69,20.42
		c15.22-2.59,33.12-10.52,50.18-23.24c23.64-17.62,39.59-39.86,43.4-58.02C191.4,74.33,184.76,82.15,175.98,88.75"/>
	<path fill="#658354" d="M196.58,161.11c1.41,0.26,2.78,0.62,4.1,1.09c-12.66-10.56-28.18-17.64-45.4-19.69
		c-26.61-3.17-51.81,6.3-70.19,23.87c17.45-13.38,39.52-20.17,62.66-17.42c13.26,1.58,25.51,6.15,36.23,12.98
		C187.93,160.67,192.22,160.31,196.58,161.11"/>
	<path fill="#F3C844" d="M162.06,29.2c1.14,15.55-1.36,34.5-7.87,53.85c-5.28,15.72-12.46,29.49-20.41,40.18
		c11.02-11.37,21.29-28.71,28.26-49.47C171.7,45,172.54,17.15,165.72,0C166.77,8.05,165.62,18.48,162.06,29.2"/>
	<path fill="#2E376A" d="M172.83,59.75c-3.63,15.12-11.73,32.24-23.76,48.4c-9.77,13.13-20.73,23.77-31.51,31.24
		c13.89-7.07,28.87-20.07,41.76-37.4c17.86-24.01,27.08-50.13,25.81-68.68C183.69,41.28,179.45,50.77,172.83,59.75"/>
	<path fill="#2E376A" d="M13.94,83.79c-3.82,0-6.77,0.95-6.77,3.87c0,1.95,1.23,2.91,2.86,2.91c1.77,0,3.29-1.25,3.77-2.81
		c0.1-0.4,0.15-0.85,0.15-1.31L13.94,83.79C13.95,83.79,13.94,83.79,13.94,83.79z M20.96,89.47c0,2.31,0.1,4.58,0.38,5.93h-6.53
		l-0.43-2.46h-0.14c-1.53,1.96-3.92,3.02-6.68,3.02c-4.72,0-7.54-3.62-7.54-7.54c0-6.38,5.44-9.4,13.7-9.4v-0.29
		c0-1.36-0.67-3.22-4.25-3.22c-2.39,0-4.92,0.86-6.45,1.86l-1.33-4.93c1.62-0.95,4.82-2.2,9.06-2.2c7.78,0,10.21,4.82,10.21,10.65
		V89.47z"/>
	<path fill="#2E376A" d="M24.87,91.02l7.35-9.7c1.33-1.6,2.39-2.86,3.67-4.32v-0.1H25.68v-6.08h19.08v4.62l-7.01,9.3
		c-1.29,1.55-2.48,3.11-3.82,4.47v0.1h11.21v6.07H24.87V91.02z"/>
	<path fill="#2E376A" d="M57.91,64.19v6.63h5.2v5.63h-5.2v8.89c0,2.97,0.72,4.32,2.86,4.32c1.01,0,1.48-0.05,2.15-0.2l0.05,5.77
		c-0.92,0.36-2.68,0.66-4.68,0.66c-2.34,0-4.29-0.85-5.48-2.11c-1.34-1.46-2.01-3.82-2.01-7.29V76.45h-3.1v-5.63h3.1v-4.58
		L57.91,64.19z"/>
	<path fill="#2E376A" d="M81.2,80.32c0-1.86-0.77-4.97-4.11-4.97c-3.06,0-4.3,2.97-4.49,4.97H81.2z M72.66,85.54
		c0.19,3.17,3.19,4.67,6.58,4.67c2.48,0,4.49-0.35,6.45-1.05l0.95,5.17c-2.39,1.05-5.3,1.56-8.45,1.56
		c-7.92,0-12.45-4.82-12.45-12.51c0-6.23,3.67-13.11,11.78-13.11c7.54,0,10.4,6.18,10.4,12.26c0,1.31-0.14,2.46-0.24,3.01
		L72.66,85.54L72.66,85.54z"/>
	<path fill="#2E376A" d="M109.78,94.74c-1.29,0.65-3.72,1.16-6.49,1.16c-7.54,0-12.36-4.88-12.36-12.56
		c0-7.19,4.68-13.06,13.36-13.06c1.91,0,4.01,0.35,5.54,0.95l-1.14,5.68c-0.86-0.41-2.15-0.76-4.06-0.76
		c-3.82,0-6.29,2.86-6.25,6.89c0,4.47,2.86,6.88,6.4,6.88c1.72,0,3.06-0.3,4.16-0.8L109.78,94.74z"/>
	<path fill="#2E376A" d="M126.39,83.79c-3.82,0-6.77,0.95-6.77,3.87c0,1.95,1.24,2.91,2.86,2.91c1.77,0,3.29-1.25,3.77-2.81
		c0.1-0.4,0.15-0.85,0.15-1.31L126.39,83.79L126.39,83.79z M133.4,89.47c0,2.31,0.1,4.58,0.38,5.93h-6.54l-0.43-2.46h-0.14
		c-1.53,1.96-3.92,3.02-6.68,3.02c-4.72,0-7.54-3.62-7.54-7.54c0-6.38,5.44-9.4,13.69-9.4v-0.29c0-1.36-0.67-3.22-4.25-3.22
		c-2.38,0-4.92,0.86-6.45,1.86l-1.33-4.93c1.62-0.95,4.82-2.2,9.07-2.2c7.77,0,10.21,4.82,10.21,10.65L133.4,89.47L133.4,89.47z"/>
	<path fill="#2E376A" d="M6.02,108.36c-0.31,0.15-1.05,0.35-1.98,0.35c-2.67,0-4.04-1.76-4.04-4.08c0-2.78,1.88-4.32,4.21-4.32
		c0.91,0,1.59,0.18,1.9,0.37l-0.37,1.45c-0.34-0.16-0.84-0.3-1.47-0.3c-1.38,0-2.45,0.88-2.45,2.69c0,1.63,0.92,2.66,2.46,2.66
		c0.54,0,1.12-0.11,1.47-0.27L6.02,108.36z"/>
	<path fill="#2E376A" d="M8.38,105.62c0,1.01,0.4,1.77,1.15,1.77c0.68,0,1.11-0.71,1.11-1.79c0-0.88-0.32-1.77-1.11-1.77
		C8.7,103.84,8.38,104.74,8.38,105.62 M12.43,105.56c0,2.16-1.45,3.15-2.95,3.15c-1.64,0-2.9-1.14-2.9-3.04
		c0-1.92,1.2-3.14,3.01-3.14C11.29,102.53,12.43,103.77,12.43,105.56"/>
	<path fill="#2E376A" d="M13.51,104.56c0-0.74-0.02-1.36-0.05-1.89h1.49l0.07,0.8h0.03c0.24-0.39,0.75-0.94,1.7-0.94
		c0.73,0,1.3,0.4,1.54,1.01h0.03c0.21-0.31,0.46-0.55,0.73-0.73c0.31-0.18,0.65-0.28,1.06-0.28c1.07,0,1.89,0.79,1.89,2.57v3.47
		h-1.7v-3.21c0-0.86-0.27-1.36-0.82-1.36c-0.42,0-0.69,0.29-0.82,0.64c-0.03,0.13-0.06,0.31-0.06,0.47v3.45h-1.69v-3.32
		c0-0.73-0.25-1.24-0.82-1.24c-0.45,0-0.71,0.37-0.81,0.66c-0.06,0.15-0.07,0.31-0.07,0.47v3.44h-1.69L13.51,104.56L13.51,104.56z"
		/>
	<path fill="#2E376A" d="M28.66,106.68c0,0.77,0.03,1.4,0.05,1.89H27.2l-0.08-0.84h-0.03c-0.21,0.37-0.75,0.97-1.76,0.97
		c-1.15,0-1.97-0.74-1.97-2.57v-3.46h1.74v3.18c0,0.85,0.26,1.37,0.88,1.37c0.48,0,0.77-0.35,0.88-0.64
		c0.05-0.11,0.06-0.24,0.06-0.4v-3.51h1.75L28.66,106.68C28.67,106.68,28.66,106.68,28.66,106.68z"/>
	<path fill="#2E376A" d="M30.06,104.56c0-0.74-0.03-1.36-0.05-1.89h1.52l0.07,0.82h0.04c0.23-0.39,0.79-0.95,1.73-0.95
		c1.15,0,2.01,0.8,2.01,2.55v3.49h-1.74v-3.27c0-0.76-0.25-1.28-0.88-1.28c-0.48,0-0.77,0.36-0.9,0.69
		c-0.04,0.12-0.05,0.29-0.05,0.46v3.41h-1.75V104.56L30.06,104.56z"/>
	<path fill="#2E376A" d="M36.78,102.67h1.75v5.9h-1.75V102.67z M38.58,101.03c0,0.51-0.36,0.92-0.94,0.92
		c-0.55,0-0.91-0.41-0.91-0.92c0-0.52,0.37-0.92,0.93-0.92C38.22,100.11,38.57,100.51,38.58,101.03"/>
	<path fill="#2E376A" d="M44.13,108.42c-0.31,0.15-0.89,0.28-1.56,0.28c-1.81,0-2.97-1.17-2.97-3.02c0-1.73,1.12-3.14,3.21-3.14
		c0.46,0,0.96,0.08,1.33,0.23l-0.28,1.36c-0.2-0.1-0.52-0.18-0.98-0.18c-0.92,0-1.51,0.69-1.5,1.66c0,1.07,0.69,1.66,1.54,1.66
		c0.41,0,0.73-0.07,0.99-0.19L44.13,108.42z"/>
	<path fill="#2E376A" d="M48.11,105.79c-0.92,0-1.63,0.23-1.63,0.93c0,0.47,0.3,0.7,0.69,0.7c0.42,0,0.79-0.31,0.9-0.68
		c0.02-0.1,0.03-0.2,0.03-0.31v-0.64H48.11z M49.8,107.15c0,0.56,0.03,1.1,0.1,1.42h-1.58l-0.1-0.59h-0.03
		c-0.37,0.47-0.94,0.72-1.61,0.72c-1.14,0-1.81-0.86-1.81-1.81c0-1.53,1.31-2.25,3.29-2.25v-0.07c0-0.33-0.16-0.77-1.02-0.77
		c-0.58,0-1.19,0.2-1.55,0.45l-0.32-1.19c0.38-0.23,1.16-0.53,2.17-0.53c1.87,0,2.45,1.16,2.45,2.56v2.06H49.8z"/>
	<path fill="#2E376A" d="M55.4,108.42c-0.32,0.15-0.89,0.28-1.56,0.28c-1.81,0-2.97-1.17-2.97-3.02c0-1.73,1.12-3.14,3.21-3.14
		c0.46,0,0.96,0.08,1.33,0.23l-0.28,1.36c-0.21-0.1-0.52-0.18-0.98-0.18c-0.92,0-1.51,0.69-1.5,1.66c0,1.07,0.69,1.66,1.53,1.66
		c0.41,0,0.73-0.07,1-0.19L55.4,108.42z"/>
	<path fill="#2E376A" d="M56.36,102.67h1.75v5.9h-1.75V102.67z M58.16,101.03c0,0.51-0.35,0.92-0.94,0.92c-0.55,0-0.9-0.41-0.9-0.92
		c0-0.52,0.36-0.92,0.93-0.92S58.15,100.51,58.16,101.03"/>
	<path fill="#2E376A" d="M60.98,105.62c0,1.01,0.4,1.77,1.15,1.77c0.68,0,1.11-0.71,1.11-1.79c0-0.88-0.32-1.77-1.11-1.77
		C61.3,103.84,60.98,104.74,60.98,105.62 M65.04,105.56c0,2.16-1.45,3.15-2.95,3.15c-1.64,0-2.9-1.14-2.9-3.04
		c0-1.92,1.19-3.14,3.01-3.14C63.9,102.53,65.04,103.77,65.04,105.56"/>
	<path fill="#2E376A" d="M66.12,104.56c0-0.74-0.02-1.36-0.05-1.89h1.52l0.07,0.82h0.03c0.23-0.39,0.8-0.95,1.73-0.95
		c1.15,0,2.01,0.8,2.01,2.55v3.49h-1.74v-3.27c0-0.76-0.25-1.28-0.88-1.28c-0.48,0-0.77,0.36-0.9,0.69
		c-0.04,0.12-0.05,0.29-0.05,0.46v3.41h-1.75v-4.03L66.12,104.56L66.12,104.56z"/>
	<path fill="#2E376A" d="M76.23,104.96c0-0.45-0.18-1.2-0.99-1.2c-0.73,0-1.03,0.71-1.07,1.2H76.23z M74.18,106.21
		c0.05,0.76,0.77,1.12,1.58,1.12c0.6,0,1.08-0.08,1.55-0.25l0.23,1.24c-0.58,0.25-1.28,0.37-2.03,0.37c-1.9,0-2.99-1.16-2.99-3.01
		c0-1.49,0.88-3.15,2.84-3.15c1.81,0,2.5,1.48,2.5,2.94c0,0.32-0.03,0.59-0.05,0.72h-3.63C74.18,106.19,74.18,106.21,74.18,106.21z"
		/>
	<path fill="#2E376A" d="M78.88,106.98c0.32,0.21,0.99,0.44,1.5,0.44c0.53,0,0.74-0.18,0.74-0.48c0-0.31-0.17-0.46-0.81-0.69
		c-1.17-0.41-1.62-1.07-1.6-1.77c0-1.11,0.89-1.94,2.28-1.94c0.66,0,1.23,0.16,1.57,0.34l-0.29,1.27c-0.25-0.14-0.75-0.34-1.21-0.34
		c-0.42,0-0.67,0.19-0.67,0.47c0,0.29,0.22,0.44,0.9,0.69c1.07,0.38,1.5,0.96,1.51,1.82c0,1.11-0.81,1.92-2.42,1.92
		c-0.73,0-1.38-0.18-1.81-0.42L78.88,106.98z"/>
	<path fill="#2E376A" d="M91.9,108.36c-0.31,0.15-1.05,0.35-1.98,0.35c-2.67,0-4.04-1.76-4.04-4.08c0-2.78,1.88-4.32,4.22-4.32
		c0.91,0,1.59,0.18,1.9,0.37l-0.37,1.45c-0.34-0.16-0.84-0.3-1.47-0.3c-1.37,0-2.45,0.88-2.45,2.69c0,1.63,0.92,2.66,2.46,2.66
		c0.54,0,1.12-0.11,1.47-0.27L91.9,108.36z"/>
	<path fill="#2E376A" d="M94.26,105.62c0,1.01,0.41,1.77,1.15,1.77c0.68,0,1.11-0.71,1.11-1.79c0-0.88-0.32-1.77-1.11-1.77
		C94.59,103.84,94.26,104.74,94.26,105.62 M98.33,105.56c0,2.16-1.46,3.15-2.96,3.15c-1.64,0-2.9-1.14-2.9-3.04
		c0-1.92,1.2-3.14,3.01-3.14C97.18,102.53,98.33,103.77,98.33,105.56"/>
	<rect x="99.4" y="100" fill="#2E376A" width="1.75" height="8.58"/>
	<path fill="#2E376A" d="M104.03,105.62c0,1.01,0.41,1.77,1.15,1.77c0.69,0,1.12-0.71,1.12-1.79c0-0.88-0.32-1.77-1.12-1.77
		C104.36,103.84,104.03,104.74,104.03,105.62 M108.09,105.56c0,2.16-1.46,3.15-2.95,3.15c-1.64,0-2.9-1.14-2.9-3.04
		c0-1.92,1.19-3.14,3.01-3.14C106.94,102.53,108.09,103.77,108.09,105.56"/>
	<path fill="#2E376A" d="M109.17,104.56c0-0.74-0.03-1.36-0.05-1.89h1.48l0.07,0.8h0.03c0.24-0.39,0.75-0.94,1.7-0.94
		c0.73,0,1.3,0.4,1.54,1.01h0.02c0.22-0.31,0.46-0.55,0.73-0.73c0.31-0.18,0.66-0.28,1.07-0.28c1.07,0,1.89,0.79,1.89,2.57v3.47
		h-1.7v-3.21c0-0.86-0.27-1.36-0.82-1.36c-0.41,0-0.68,0.29-0.81,0.64c-0.03,0.13-0.06,0.31-0.06,0.47v3.45h-1.69v-3.32
		c0-0.73-0.25-1.24-0.82-1.24c-0.45,0-0.71,0.37-0.81,0.66c-0.06,0.15-0.07,0.31-0.07,0.47v3.44h-1.69L109.17,104.56L109.17,104.56z
		"/>
	<path fill="#2E376A" d="M120.78,106.06c0,0.12,0.01,0.23,0.03,0.33c0.12,0.49,0.51,0.87,1.02,0.87c0.75,0,1.2-0.6,1.2-1.67
		c0-0.92-0.38-1.64-1.2-1.64c-0.47,0-0.9,0.38-1.02,0.9c-0.02,0.11-0.03,0.21-0.03,0.34V106.06z M119.03,100h1.75v3.37h0.02
		c0.33-0.51,0.92-0.84,1.7-0.84c1.34,0,2.31,1.17,2.31,2.99c0,2.12-1.27,3.18-2.56,3.18c-0.66,0-1.29-0.25-1.68-0.95h-0.02
		l-0.07,0.82H119c0.02-0.39,0.05-1.1,0.05-1.76V100H119.03z"/>
	<path fill="#2E376A" d="M125.89,102.67h1.74v5.9h-1.74V102.67z M127.69,101.03c0,0.51-0.36,0.92-0.94,0.92
		c-0.55,0-0.91-0.41-0.91-0.92c0-0.52,0.37-0.92,0.93-0.92C127.33,100.11,127.68,100.51,127.69,101.03"/>
	<path fill="#2E376A" d="M132.01,105.79c-0.92,0-1.63,0.23-1.63,0.93c0,0.47,0.3,0.7,0.69,0.7c0.42,0,0.79-0.31,0.9-0.68
		c0.02-0.1,0.03-0.2,0.03-0.31v-0.64H132.01z M133.7,107.15c0,0.56,0.02,1.1,0.1,1.42h-1.58l-0.1-0.59h-0.03
		c-0.37,0.47-0.94,0.72-1.6,0.72c-1.14,0-1.81-0.86-1.81-1.81c0-1.53,1.31-2.25,3.29-2.25v-0.07c0-0.33-0.16-0.77-1.02-0.77
		c-0.58,0-1.18,0.2-1.55,0.45l-0.32-1.19c0.39-0.23,1.16-0.53,2.17-0.53c1.87,0,2.46,1.16,2.46,2.56L133.7,107.15L133.7,107.15z"/>
</g>
</svg>
