<?xml version="1.0" standalone="no"?>
<!DOCTYPE svg PUBLIC "-//W3C//DTD SVG 20010904//EN"
 "http://www.w3.org/TR/2001/REC-SVG-20010904/DTD/svg10.dtd">
<svg version="1.0" xmlns="http://www.w3.org/2000/svg"
 width="92" height="64" viewBox="0 0 512.000000 512.000000"
 preserveAspectRatio="xMidYMid meet">
<metadata>
Created by potrace 1.16, written by Peter Selinger 2001-2019
</metadata>
<g transform="translate(0.000000,512.000000) scale(0.100000,-0.100000)"
fill="#000000" stroke="none">
<path d="M2280 4925 c-426 -72 -775 -333 -931 -695 -71 -166 -99 -309 -99
-509 0 -486 227 -1025 598 -1422 l80 -85 -65 -34 c-237 -122 -438 -340 -524
-566 l-31 -81 -87 -27 c-47 -16 -127 -48 -177 -72 -50 -24 -96 -44 -103 -44
-6 0 -163 41 -348 91 -359 98 -364 98 -397 47 -21 -33 -196 -689 -196 -736 0
-26 6 -45 20 -57 24 -22 697 -205 753 -205 69 0 74 11 166 375 46 182 91 338
99 347 13 15 165 87 220 103 22 6 22 6 22 -100 0 -237 82 -445 254 -647 162
-190 402 -328 690 -396 102 -25 128 -27 331 -27 175 0 237 4 305 18 282 60
550 201 707 372 117 128 220 305 253 435 11 45 12 46 74 64 35 10 109 40 166
67 56 27 109 49 118 49 8 0 156 -38 328 -85 172 -47 328 -85 347 -85 68 0 71
6 173 385 93 346 108 431 81 454 -20 16 -708 201 -749 201 -69 0 -72 -5 -172
-380 -79 -295 -96 -347 -117 -362 -13 -10 -67 -36 -119 -58 l-95 -39 -6 107
c-4 59 -14 136 -24 172 -71 271 -278 522 -550 667 l-85 45 80 85 c313 335 517
752 586 1198 24 162 16 423 -19 557 -53 201 -144 362 -290 510 -186 189 -433
315 -706 362 -115 20 -449 20 -561 1z m515 -151 c446 -68 792 -357 896 -749
27 -102 37 -346 19 -479 -37 -279 -154 -589 -318 -841 -173 -266 -465 -555
-760 -750 l-73 -48 -101 69 c-295 199 -586 494 -752 764 -197 318 -306 671
-306 991 0 260 69 465 220 652 256 318 695 464 1175 391z m-655 -2753 c35 -30
95 -77 132 -104 38 -27 68 -53 68 -58 0 -4 -10 -11 -22 -15 -71 -22 -235 -166
-274 -241 -18 -34 -20 -35 -64 -29 -93 13 -328 17 -405 8 -44 -5 -82 -8 -84
-6 -8 7 73 138 128 206 89 113 192 194 346 275 64 33 83 39 95 30 8 -7 44 -36
80 -66z m1160 -49 c251 -178 400 -435 400 -692 l0 -98 -72 -13 c-80 -15 -356
-19 -428 -6 l-45 8 0 127 c0 142 -18 210 -80 307 -60 93 -201 217 -272 239
-13 4 -23 11 -23 16 0 4 28 29 63 53 34 25 100 77 147 115 l85 70 80 -40 c44
-22 109 -61 145 -86z m1386 -153 c148 -39 271 -72 272 -74 4 -3 -147 -547
-153 -553 -3 -4 -537 137 -543 143 -6 5 141 555 148 555 4 0 128 -32 276 -71z
m-1934 -122 c93 -45 177 -132 222 -227 29 -61 31 -72 31 -180 0 -108 -2 -119
-31 -180 -45 -96 -129 -182 -222 -227 -75 -37 -78 -38 -191 -38 -110 0 -120 2
-184 32 -92 44 -186 138 -230 230 -30 65 -32 74 -32 183 1 108 2 119 33 183
37 80 132 181 202 217 81 42 120 50 226 47 94 -2 106 -5 176 -40z m-807 -273
c19 -5 20 -12 17 -109 -5 -128 9 -194 58 -293 66 -132 201 -252 340 -303 57
-21 83 -24 200 -24 151 0 217 17 315 80 63 41 169 147 202 203 23 38 29 43 52
37 46 -11 414 -17 474 -7 56 9 57 8 51 -12 -12 -40 -86 -171 -126 -223 -58
-75 -179 -188 -256 -237 -163 -105 -321 -165 -517 -196 -99 -16 -315 -13 -417
5 -446 78 -793 367 -888 739 -20 80 -29 287 -12 312 6 10 84 26 192 38 43 5
288 -2 315 -10z m-1355 -105 c146 -39 267 -72 269 -74 5 -6 -130 -545 -137
-545 -10 0 -547 142 -550 145 -5 5 141 545 147 545 3 0 125 -32 271 -71z"/>
<path d="M2390 4324 c-30 -8 -98 -35 -150 -61 -82 -40 -108 -60 -196 -147 -83
-84 -107 -115 -142 -186 -53 -110 -72 -190 -72 -319 0 -128 18 -208 73 -321
35 -72 57 -101 146 -191 90 -89 119 -111 191 -146 113 -55 193 -73 320 -73
127 0 207 18 320 73 72 35 101 57 191 146 88 89 112 119 147 191 54 110 72
190 72 320 0 130 -16 196 -77 320 -40 82 -60 108 -147 196 -85 84 -115 107
-186 141 -47 23 -115 48 -151 57 -82 20 -263 20 -339 0z m295 -146 c163 -34
323 -163 400 -323 45 -95 58 -163 53 -276 -8 -150 -61 -268 -170 -377 -306
-307 -805 -190 -960 224 -33 86 -33 282 0 368 80 215 270 369 487 395 66 8
114 5 190 -11z"/>
</g>
</svg>
