<?xml version="1.0" standalone="no"?>
<!DOCTYPE svg PUBLIC "-//W3C//DTD SVG 20010904//EN"
 "http://www.w3.org/TR/2001/REC-SVG-20010904/DTD/svg10.dtd">
<svg version="1.0" xmlns="http://www.w3.org/2000/svg"
  width="92" height="64" viewBox="0 0 512.000000 512.000000"
 preserveAspectRatio="xMidYMid meet">
<metadata>
Created by potrace 1.16, written by Peter Selinger 2001-2019
</metadata>
<g transform="translate(0.000000,512.000000) scale(0.100000,-0.100000)"
fill="#000000" stroke="none">
<path d="M2305 4889 c-217 -23 -495 -99 -712 -196 -275 -123 -574 -341 -768
-561 -230 -260 -381 -519 -485 -832 -409 -1225 253 -2551 1480 -2961 390 -130
833 -155 1237 -68 134 28 367 107 493 166 581 273 1028 775 1230 1383 84 251
120 476 120 740 0 264 -36 489 -120 740 -289 871 -1070 1498 -1979 1590 -119
12 -379 11 -496 -1z m463 -380 c608 -66 1167 -427 1479 -957 337 -572 363
-1256 71 -1852 -85 -174 -189 -328 -297 -442 l-35 -38 -1427 0 -1428 0 -56 63
c-142 158 -293 422 -369 643 -209 612 -104 1280 285 1804 76 103 237 270 339
353 280 226 657 386 1005 425 114 13 320 14 433 1z m1040 -3435 c9 -60 -358
-279 -614 -368 -572 -197 -1212 -114 -1714 221 -138 93 -183 133 -175 156 7
16 73 17 1254 15 l1246 -3 3 -21z"/>
<path d="M2520 4330 c0 -119 2 -130 20 -140 14 -8 26 -8 40 0 18 10 20 21 20
140 l0 130 -40 0 -40 0 0 -130z"/>
<path d="M1612 4202 c-18 -9 -31 -21 -30 -27 2 -6 28 -55 58 -108 38 -68 62
-99 78 -103 25 -7 52 11 52 34 0 16 -105 208 -118 215 -4 3 -22 -3 -40 -11z"/>
<path d="M3462 4207 c-31 -40 -112 -188 -112 -204 0 -41 45 -57 73 -25 18 20
117 190 117 201 0 4 -15 15 -34 24 -26 12 -37 13 -44 4z"/>
<path d="M2340 3875 c-429 -72 -784 -334 -979 -723 -49 -97 -99 -256 -118
-375 -16 -99 -16 -109 -1 -123 11 -11 25 -14 42 -10 20 5 26 14 31 44 54 336
152 539 360 748 219 221 486 344 798 370 l87 7 0 38 0 39 -72 -1 c-40 -1 -107
-7 -148 -14z"/>
<path d="M913 3505 c-9 -19 -15 -36 -12 -38 2 -2 50 -30 107 -62 91 -51 106
-56 128 -47 24 11 31 36 16 58 -7 11 -203 124 -215 124 -4 0 -15 -16 -24 -35z"/>
<path d="M4065 3482 c-91 -53 -100 -60 -100 -87 0 -26 4 -30 32 -33 24 -2 55
10 128 53 52 31 95 61 95 66 0 17 -32 59 -44 58 -6 0 -56 -26 -111 -57z"/>
<path d="M3365 3439 c-413 -250 -696 -461 -906 -676 -113 -115 -129 -150 -110
-243 21 -103 104 -170 211 -170 84 1 123 24 239 146 209 219 385 459 623 849
101 168 111 185 101 185 -4 0 -75 -41 -158 -91z m-720 -789 c53 -50 50 -137
-6 -184 -24 -20 -42 -26 -79 -26 -121 0 -169 144 -74 219 39 31 122 26 159 -9z"/>
<path d="M660 2560 l0 -40 130 0 c119 0 130 2 140 20 8 14 8 26 0 40 -10 18
-21 20 -140 20 l-130 0 0 -40z"/>
<path d="M4190 2580 c-8 -14 -8 -26 0 -40 10 -18 21 -20 140 -20 l130 0 0 40
0 40 -130 0 c-119 0 -130 -2 -140 -20z"/>
<path d="M2202 2008 c-16 -16 -15 -43 2 -57 9 -8 113 -11 361 -9 319 3 349 4
359 21 8 12 8 22 0 35 -10 16 -40 17 -360 20 -264 2 -353 -1 -362 -10z"/>
<path d="M1013 1712 c-57 -32 -105 -61 -109 -64 -8 -9 28 -68 41 -68 5 0 55
26 110 58 74 43 101 64 103 81 4 24 -13 51 -32 51 -6 0 -57 -26 -113 -58z"/>
<path d="M3972 1758 c-17 -17 -15 -42 6 -60 21 -19 190 -118 200 -118 11 0 43
61 37 70 -8 13 -200 120 -216 120 -8 0 -20 -5 -27 -12z"/>
<path d="M1984 1636 c-3 -8 -4 -25 -2 -38 l3 -23 575 0 575 0 0 35 0 35 -573
3 c-490 2 -573 0 -578 -12z"/>
</g>
</svg>
