<?xml version="1.0" encoding="UTF-8"?>
<svg width="92" height="64" viewBox="0 0 174 40" version="1.1" xmlns="http://www.w3.org/2000/svg" xmlns:xlink="http://www.w3.org/1999/xlink">
    <!-- Generator: Sketch 53.2 (72643) - https://sketchapp.com -->
    <title>logo/swi-darkText Copy 8</title>
    <desc>Created with Sketch.</desc>
    <g id="Branding" stroke="none" stroke-width="1" fill="none" fill-rule="evenodd">
        <g transform="translate(-625.000000, -192.000000)" id="branding/logo/swi-darkText">
            <g transform="translate(621.000000, 192.000000)">
                <g id="swi-logo-whiteText" transform="translate(4.000000, 0.000000)">
                    <g fill-rule="nonzero" id="19331241-ab5e-4d90-9e7e-ca3da28e8c82">
                        <g>
                            <g id="223b8eeb-e04e-4687-9fd5-72de5c44ff08">
                                <path d="M4.55652174,39.5826087 C3.0251412,39.600102 1.50471491,39.3225873 0.0782608696,38.7652174 L0.0782608696,36.4608696 C1.5245381,36.9186345 3.01820135,37.2103656 4.53043478,37.3304348 C6,37.3304348 7.43478261,37.0608696 7.43478261,35.2956522 C7.43478261,33.9391304 6.42608696,33.6347826 5.1826087,33.2869565 L4.0173913,32.9652174 C2.49565217,32.5565217 0,31.9304348 0,28.8869565 C0,25.4695652 2.76521739,24.6521739 5.6173913,24.6521739 C7.00677059,24.6168134 8.38438624,24.9149986 9.63478261,25.5217391 L9.63478261,27.7478261 C8.33105811,27.1908915 6.93063947,26.8954445 5.51304348,26.8782609 C3.71304348,26.826087 2.60869565,27.173913 2.60869565,28.6956522 C2.60869565,30.026087 3.63478261,30.3478261 4.88695652,30.6782609 L6.29565217,31.0608696 C7.94782609,31.4956522 10.0695652,32.4695652 10.0695652,35.1826087 C10.0434783,38.6608696 7.57391304,39.5826087 4.55652174,39.5826087 Z" id="Shape" fill="#444444"></path>
                                <path d="M19.6869565,39.5826087 C16.8869565,39.5826087 12.9826087,38.7130435 12.9826087,32.1217391 C12.9826087,25.7391304 16.9217391,24.6608696 19.6869565,24.6608696 C22.2956522,24.6608696 26.3913043,25.5304348 26.3913043,32.1217391 C26.3913043,38.7130435 22.373913,39.5826087 19.6869565,39.5826087 Z M19.6869565,26.6608696 C18.1913043,26.6608696 15.6956522,27.1217391 15.6956522,32.1217391 C15.6956522,37.1217391 18.573913,37.5478261 19.6869565,37.5478261 C21.0173913,37.5478261 23.6782609,37 23.6782609,32.1217391 C23.6782609,27.0434783 21.1826087,26.6608696 19.6869565,26.6608696 L19.6869565,26.6608696 Z" id="Shape" fill="#444444"></path>
                                <polygon id="Shape" fill="#444444" points="29.9043478 39.3043478 29.9043478 20.173913 32.6173913 20.173913 32.6173913 39.3043478"></polygon>
                                <path d="M45.9913043,39.3043478 L45.7217391,37.4347826 C44.5418791,38.7975629 42.8286512,39.581206 41.026087,39.5826087 C38.826087,39.5826087 36.4086957,38.7913043 36.4086957,35.1565217 C36.4086957,31.1652174 40.1565217,30.4086957 42.4956522,30.4086957 L45.6695652,30.4086957 L45.6695652,29.1565217 C45.6695652,27.2869565 44.5565217,26.8521739 42.6869565,26.8521739 C40.9641792,26.9266901 39.2618081,27.2548581 37.6347826,27.826087 L37.6347826,25.6608696 C39.3625591,25.0146953 41.1901915,24.6762449 43.0347826,24.6608696 C46.1826087,24.6608696 48.3565217,25.826087 48.3565217,29.6 L48.3565217,39.3043478 L45.9913043,39.3043478 Z M45.6347826,32.0347826 L43.026087,32.0347826 C40.5565217,32.0347826 39.0956522,32.7130435 39.0956522,35.0434783 C39.0956522,36.8869565 40.2347826,37.4347826 41.7043478,37.4347826 C43.6869565,37.4347826 45.6434783,35.5652174 45.6434783,35.5652174 L45.6347826,32.0347826 Z" id="Shape" fill="#444444"></path>
                                <path d="M58.1652174,27.0956522 C56.5652174,27.0956522 55.3130435,28.8347826 55.3130435,28.8347826 L55.3130435,39.2695652 L52.6086957,39.2695652 L52.6086957,24.9217391 L54.7826087,24.9217391 L55.1391304,26.9043478 C56.0969837,24.9236232 58.4746754,24.0883231 60.4608696,25.0347826 L60.4608696,27.5043478 C59.7316124,27.2127018 58.9503209,27.0736083 58.1652174,27.0956522 L58.1652174,27.0956522 Z" id="Shape" fill="#444444"></path>
                                <path d="M81.8347826,39.3043478 L78.0695652,39.3043478 L75.8434783,31.6521739 C75.2434783,29.6173913 74.3826087,26.2521739 74.3826087,26.2521739 C74.3826087,26.2521739 73.4608696,29.6434783 72.8869565,31.626087 L70.6608696,39.3043478 L66.9130435,39.3043478 L63.1130435,24.9217391 L66.2086957,24.9217391 L67.9478261,33.173913 C68.3565217,35.0782609 68.8173913,38.0608696 68.8173913,38.0608696 C68.8173913,38.0608696 69.3913043,35.0782609 69.9565217,33.173913 L72.426087,24.9217391 L76.3304348,24.9217391 L78.8,33.173913 C79.3652174,35.0434783 80,38.0608696 80,38.0608696 C80,38.0608696 80.4347826,35.3217391 80.8695652,33.173913 L82.6086957,24.9217391 L85.6521739,24.9217391 L81.8347826,39.3043478 Z" id="Shape" fill="#444444"></path>
                                <polygon id="Shape" fill="#444444" points="89.026087 39.3043478 89.026087 24.8347826 91.7391304 24.8347826 91.7391304 39.3043478"></polygon>
                                <path d="M106.034783,39.3043478 L106.034783,29.4521739 C106.034783,27.6608696 105.304348,26.9826087 103.426087,26.9826087 C101.702693,27.1238737 100.055489,27.7543967 98.6782609,28.8 L98.6782609,39.3043478 L95.9652174,39.3043478 L95.9652174,24.9217391 L98.0521739,24.9217391 L98.5913043,26.9565217 C100.089274,25.583728 102.015022,24.7698155 104.043478,24.6521739 C106.704348,24.6521739 108.713043,25.8173913 108.713043,29.4869565 L108.713043,39.3043478 L106.034783,39.3043478 Z" id="Shape" fill="#444444"></path>
                                <path d="M122.834783,39.3043478 L122.53913,37.4869565 C121.386886,38.8494727 119.679546,39.6168167 117.895652,39.573913 C115.643478,39.573913 111.921739,38.5652174 111.921739,32.1130435 C111.921739,25.6608696 116.513043,24.6521739 118.434783,24.6521739 C119.846561,24.5766842 121.225204,25.0972246 122.234783,26.0869565 L122.234783,20.2 L124.947826,20.2 L124.947826,39.3304348 L122.834783,39.3043478 Z M122.234783,28.2608696 C121.258456,27.3888797 120.011925,26.8792144 118.704348,26.8173913 C116.721739,26.8173913 114.634783,27.6086957 114.634783,32.1130435 C114.634783,36.8608696 116.756522,37.426087 118.434783,37.426087 C119.843377,37.2875273 121.17274,36.7095434 122.234783,35.773913 L122.234783,28.2608696 Z" id="Shape" fill="#444444"></path>
                                <path d="M133.304348,39.5826087 C131.772949,39.6003194 130.252481,39.3227972 128.826087,38.7652174 L128.826087,36.4608696 C130.272364,36.9186345 131.766027,37.2103656 133.278261,37.3304348 C134.747826,37.3304348 136.182609,37.0608696 136.182609,35.2956522 C136.182609,33.9391304 135.182609,33.6347826 133.930435,33.2869565 L132.765217,32.9652174 C131.243478,32.5304348 128.747826,31.9043478 128.747826,28.8695652 C128.747826,25.4521739 131.513043,24.6347826 134.365217,24.6347826 C135.754597,24.5994221 137.132212,24.8976073 138.382609,25.5043478 L138.382609,27.7304348 C137.078953,27.1732836 135.67849,26.8778275 134.26087,26.8608696 C132.469565,26.8608696 131.330435,27.2173913 131.330435,28.7652174 C131.330435,30.0956522 132.365217,30.4173913 133.608696,30.7478261 L135.017391,31.1304348 C136.669565,31.5652174 138.791304,32.5391304 138.791304,35.2521739 C138.782609,38.6608696 136.313043,39.5826087 133.304348,39.5826087 Z" id="Shape" fill="#444444"></path>
                                <path d="M151.434783,16.1652174 L151.808696,16.0608696 C154.56182,15.236876 157.26243,14.2466521 159.895652,13.0956522 C162.564141,12.0478379 165.06804,10.6216403 167.330435,8.86086957 C169.733594,6.95096949 171.543276,4.39630194 172.547826,1.49565217 C172.771943,1.01858969 172.938336,0.516489969 173.043478,3e-16 C169.426087,4.93913043 155.095652,5.45217391 155.095652,5.45217391 L158.478261,2.34782609 C148.630893,2.38015643 139.039473,5.48710784 131.043478,11.2347826 C136.456833,11.8163587 141.548236,14.0927302 145.591304,17.7391304 C147.495652,17.1304348 149.478261,16.7043478 151.434783,16.1652174 Z" id="Shape" fill="#F99D1C"></path>
                                <path d="M173.913043,15.6521739 C164.79403,15.2446643 155.673415,16.4215179 146.956522,19.1304348 C148.790289,21.0431442 150.321,23.2248473 151.495652,25.6 C158.704348,21.5391304 168.695652,16.4 173.913043,15.6521739 Z" id="Shape" fill="#F99D1C"></path>
                                <path d="M152.391304,27.626087 C153.246921,29.8216603 153.796986,32.1243286 154.026087,34.4695652 L166.617391,21.5217391 L152.391304,27.626087 Z" id="Shape" fill="#F99D1C"></path>
                                <path d="M159.11087,33.9929881 L159.11087,33.8506931 C159.109526,33.793165 159.088607,33.7373504 159.05087,33.6906112 C159.01875,33.6447681 158.96157,33.6176469 158.90087,33.6194636 L158.90087,33.6194636 L159.03087,33.6194636 C159.108993,33.5751659 159.154707,33.4972424 159.15087,33.4149145 C159.164738,33.3001827 159.091226,33.19122 158.97087,33.1481114 C158.868431,33.131007 158.763308,33.131007 158.66087,33.1481114 L158.26087,33.1481114 L158.26087,34.1352831 L158.47087,34.1352831 L158.47087,33.7706521 L158.62087,33.7706521 C158.686692,33.7573098 158.755047,33.7573098 158.82087,33.7706521 C158.88087,33.7706521 158.91087,33.8684799 158.91087,33.9752012 L158.91087,34.0552421 L158.91087,34.1263897 L159.12087,34.1263897 L159.12087,34.1263897 L159.11087,33.9929881 Z M158.47087,33.2192589 L158.61087,33.2192589 C158.683255,33.2044287 158.758484,33.2044287 158.83087,33.2192589 C158.876985,33.2494254 158.904216,33.2973016 158.904216,33.3482138 C158.904216,33.3991259 158.876985,33.4470022 158.83087,33.4771686 C158.771344,33.4866597 158.710395,33.4866597 158.65087,33.4771686 L158.50087,33.4771686 L158.47087,33.2192589 Z" id="Shape" fill="#F99D1C"></path>
                                <path d="M159.234783,32.9391304 C159.011103,32.7154511 158.685084,32.6280944 158.379532,32.7099667 C158.07398,32.791839 157.835317,33.030502 157.753445,33.3360537 C157.671573,33.6416053 157.758929,33.967625 157.982609,34.1913043 C158.146507,34.3613495 158.372522,34.4574139 158.608696,34.4574139 C158.844869,34.4574139 159.070884,34.3613495 159.234783,34.1913043 C159.402901,34.0265232 159.497027,33.8006207 159.495652,33.5652174 C159.497027,33.3298141 159.402901,33.1039116 159.234783,32.9391304 Z M158.608696,34.2956522 C158.41507,34.2967881 158.229516,34.2181634 158.095652,34.0782609 C157.957603,33.9402465 157.882172,33.7516698 157.886957,33.5565217 C157.891745,33.1590834 158.216969,32.8403185 158.614423,32.8435014 C159.011877,32.8466843 159.331954,33.170617 159.330377,33.5680811 C159.3288,33.9655451 159.006163,34.2869277 158.608696,34.2869565 L158.608696,34.2956522 Z" id="Shape" fill="#F99D1C"></path>
                            </g>
                        </g>
                    </g>
                </g>
            </g>
        </g>
    </g>
</svg>