<?xml version="1.0" standalone="no"?>
<!DOCTYPE svg PUBLIC "-//W3C//DTD SVG 20010904//EN"
 "http://www.w3.org/TR/2001/REC-SVG-20010904/DTD/svg10.dtd">
<svg version="1.0" xmlns="http://www.w3.org/2000/svg"
 width="92" height="64" viewBox="0 0 87.000000 84.000000"
 preserveAspectRatio="xMidYMid meet">
<metadata>
Created by potrace 1.16, written by Peter Selinger 2001-2019
</metadata>
<g transform="translate(0.000000,84.000000) scale(0.100000,-0.100000)"
fill="#000000" stroke="none">
<path d="M394 719 c-38 -11 -91 -68 -100 -107 -3 -15 -10 -37 -15 -50 -21 -53
0 -132 36 -132 7 0 18 -14 24 -32 6 -17 19 -40 27 -50 18 -19 22 -17 -51 -38
-84 -25 -155 -92 -155 -147 l0 -23 310 0 c346 0 337 -2 303 67 -24 51 -87 90
-189 118 -18 5 32 98 61 113 36 18 41 66 16 149 -24 80 -59 120 -117 134 -48
11 -109 10 -150 -2z m96 -184 c23 -8 57 -15 76 -15 18 0 35 -4 39 -9 17 -28
-58 -100 -91 -87 -38 15 -70 -34 -42 -62 19 -19 43 -14 67 14 12 14 25 23 29
20 3 -4 -6 -18 -20 -33 -21 -21 -35 -25 -74 -25 -61 2 -85 25 -113 108 -26 79
-26 74 2 74 16 1 66 18 83 29 1 1 21 -6 44 -14z m-107 -265 c3 -11 22 -27 42
-36 26 -10 35 -20 31 -30 -3 -9 -6 -20 -6 -25 0 -5 -56 -9 -125 -9 -86 0 -125
3 -125 11 0 21 69 77 112 92 58 21 65 20 71 -3z m272 -9 c51 -24 95 -64 95
-86 0 -3 -58 -5 -130 -5 l-130 0 0 29 c0 24 5 30 30 35 19 3 34 15 42 31 14
31 20 31 93 -4z"/>
</g>
</svg>
