<?xml version="1.0" encoding="utf-8"?>
<!-- Generator: Adobe Illustrator 19.0.0, SVG Export Plug-In . SVG Version: 6.00 Build 0)  -->
<svg version="1.1" id="layer" xmlns="http://www.w3.org/2000/svg" xmlns:xlink="http://www.w3.org/1999/xlink" x="0px" y="0px"
	 width="92" height="64"
	 viewBox="-153 -46 652 652" style="enable-background:new -153 -46 652 652;" xml:space="preserve">
<style type="text/css">
	.st0{fill:#D40000;}
	.st1{fill:#FFFFFF;}
</style>
<rect x="-132" y="196.4" class="st0" width="600" height="157.1"/>
<path class="st1" d="M-106.3,220.4h86.8v11.4l-70,85.4h71.8v12.5h-90.4v-11.4l70-85.4h-68.2V220.4z M40.9,235l-20.4,54.3h40.7
	L40.9,235z M32.3,220.4h16.8l42.1,109.3H75.9l-10-27.9h-50l-10,27.9H-9.9L32.3,220.4z M122.3,277.5v40h23.9c8.2,0,13.9-1.8,17.9-5
	c3.9-3.2,5.7-8.2,5.7-15s-1.8-11.8-5.7-15c-3.9-3.2-10-5-17.9-5C146.2,277.5,122.3,277.5,122.3,277.5z M122.3,232.5v32.9h22.1
	c7.1,0,12.9-1.4,16.4-3.9c3.6-2.9,5.4-6.8,5.4-12.5c0-5.4-1.8-9.6-5.4-12.5c-3.6-2.9-8.9-3.9-16.4-3.9
	C144.4,232.5,122.3,232.5,122.3,232.5z M107.3,220.4h38.2c11.4,0,20,2.5,26.4,7.1c6.1,4.6,9.3,11.4,9.3,20c0,6.8-1.4,12.1-4.6,16.1
	c-3.2,3.9-7.9,6.4-13.9,7.5c7.5,1.4,13.2,4.6,17.1,9.6c3.9,5,6.1,11.1,6.1,18.6c0,9.6-3.2,17.1-10,22.5s-16.1,7.9-28.6,7.9h-40
	V220.4z M224.8,277.5v40h23.9c7.9,0,13.9-1.8,17.9-5c3.9-3.2,5.7-8.2,5.7-15s-1.8-11.8-5.7-15c-3.9-3.2-10-5-17.9-5
	C248.7,277.5,224.8,277.5,224.8,277.5z M224.8,232.5v32.9h22.1c7.1,0,12.9-1.4,16.4-3.9c3.6-2.9,5.4-6.8,5.4-12.5
	c0-5.4-1.8-9.6-5.4-12.5c-3.6-2.9-8.9-3.9-16.4-3.9C246.9,232.5,224.8,232.5,224.8,232.5z M209.8,220.4H248c11.4,0,20,2.5,26.4,7.1
	c6.1,4.6,9.3,11.4,9.3,20c0,6.8-1.4,12.1-4.6,16.1c-3.2,3.9-7.9,6.4-13.9,7.5c7.5,1.4,13.2,4.6,17.1,9.6s6.1,11.1,6.1,18.6
	c0,9.6-3.2,17.1-10,22.5c-6.8,5.4-16.1,7.9-28.6,7.9h-40V220.4z M355.1,220.4h16.4l26.1,39.3l26.4-39.3h15.7l-34.3,51.1l38.6,58.2
	h-16.4l-30.4-45.7l-30.4,45.7h-16.1l38.6-57.9L355.1,220.4z M311.9,220.4h15v109.3h-15V220.4z"/>
</svg>
